<?xml version="1.0" encoding="UTF-8"?>
<svg width="16px" height="16px" viewBox="0 0 16 16" version="1.1" xmlns="http://www.w3.org/2000/svg" xmlns:xlink="http://www.w3.org/1999/xlink">
    <title>通用图标/线性/16/[操作类-垃圾桶&amp;删除]iconCommon_line_16_delete</title>
    <g id="通用图标/线性/16/[操作类-垃圾桶&amp;删除]iconCommon_line_16_delete" stroke="none" stroke-width="1" fill="none" fill-rule="evenodd">
        <rect id="矩形" x="0" y="0" width="16" height="16"></rect>
        <path d="M3,3 L3,13.5 C3,13.7454599 3.17687516,13.9496084 3.41012437,13.9919443 L3.5,14 L12.5,14 C12.7454599,14 12.9496084,13.8231248 12.9919443,13.5898756 L13,13.5 L13,3 L14,3 L14,13.5 C14,14.2796961 13.4051119,14.9204487 12.64446,14.9931334 L12.5,15 L3.5,15 C2.72030388,15 2.07955132,14.4051119 2.00686658,13.64446 L2,13.5 L2,3 L3,3 Z" id="路径" fill="#4285F4" fill-rule="nonzero"></path>
        <polygon id="路径" fill="#4285F4" fill-rule="nonzero" points="6 6 6 12 5 12 5 6"></polygon>
        <polygon id="路径" fill="#4285F4" fill-rule="nonzero" points="11 6 11 12 10 12 10 6"></polygon>
        <path d="M6,1 L6,2.5 C6,2.74545989 6.17687516,2.94960837 6.41012437,2.99194433 L6.5,3 L9.5,3 C9.74545989,3 9.94960837,2.82312484 9.99194433,2.58987563 L10,2.5 L10,1 L11,1 L11,2.5 C11,3.27969612 10.4051119,3.92044868 9.64446001,3.99313342 L9.5,4 L6.5,4 C5.72030388,4 5.07955132,3.40511192 5.00686658,2.64446001 L5,2.5 L5,1 L6,1 Z" id="路径" fill="#4285F4" fill-rule="nonzero" transform="translate(8.000000, 2.500000) scale(1, -1) translate(-8.000000, -2.500000) "></path>
        <polygon id="路径" fill="#4285F4" fill-rule="nonzero" points="15 3 15 4 1 4 1 3"></polygon>
    </g>
</svg>