<?xml version="1.0" encoding="UTF-8"?>
<svg width="16px" height="16px" viewBox="0 0 16 16" version="1.1" xmlns="http://www.w3.org/2000/svg" xmlns:xlink="http://www.w3.org/1999/xlink">
    <title>通用图标/线性/16/[操作类-笔&amp;编辑&amp;自定义]iconCommon_line_16_edit</title>
    <g id="通用图标/线性/16/[操作类-笔&amp;编辑&amp;自定义]iconCommon_line_16_edit" stroke="none" stroke-width="1" fill="none" fill-rule="evenodd">
        <rect id="矩形" x="0" y="0" width="16" height="16"></rect>
        <path d="M10.3319694,1.19387149 L1.44904683,10.297197 C1.17565563,10.5773715 1.0226237,10.9533217 1.0226237,11.3447812 L1.0226237,14.25 C1.0226237,14.6642136 1.35841014,15 1.7726237,15 L4.65515911,15 C5.05935684,15 5.44644854,14.8368758 5.72873598,14.5475842 L14.6203834,5.43531747 C15.1934641,4.84801748 15.1882617,3.90922749 14.6087072,3.32831498 L12.4531305,1.16787886 C11.8602104,0.589314063 10.9105342,0.600951362 10.3319694,1.19387149 Z M11.7547411,1.88359677 L13.9007734,4.03459382 C14.0939583,4.22823133 14.0956924,4.54116132 13.9046655,4.73692798 L5.01301807,13.8491947 L4.95260227,13.9019078 C4.86708195,13.9652002 4.76294517,14 4.65515911,14 L2.022,13.999 L2.0226237,11.3447812 C2.0226237,11.2142947 2.07363434,11.088978 2.16476474,10.9955864 L11.0476874,1.89226098 C11.2405423,1.69462093 11.557101,1.69074183 11.7547411,1.88359677 Z" id="路径" fill="#4285F4" fill-rule="nonzero"></path>
        <polygon id="路径" fill="#4285F4" fill-rule="nonzero" points="15 14 15 15 7 15 7 14"></polygon>
        <polygon id="路径" fill="#4285F4" fill-rule="nonzero" points="9.56326997 2.68726686 13.1001632 6.38894259 12.3771468 7.07977345 8.84025357 3.37809772"></polygon>
    </g>
</svg>