<?xml version="1.0" encoding="UTF-8"?>
<svg width="16px" height="16px" viewBox="0 0 16 16" version="1.1" xmlns="http://www.w3.org/2000/svg" xmlns:xlink="http://www.w3.org/1999/xlink">
    <title>通用图标/线性/16/[操作类-复制]iconCommon_line_16_copy</title>
    <g id="通用图标/线性/16/[操作类-复制]iconCommon_line_16_copy" stroke="none" stroke-width="1" fill="none" fill-rule="evenodd">
        <path d="M9.5,4 L2.5,4 C1.67157288,4 1,4.67157288 1,5.5 L1,13.5 C1,14.3284271 1.67157288,15 2.5,15 L9.5,15 C10.3284271,15 11,14.3284271 11,13.5 L11,5.5 C11,4.67157288 10.3284271,4 9.5,4 Z M2.5,5 L9.5,5 C9.77614237,5 10,5.22385763 10,5.5 L10,13.5 C10,13.7761424 9.77614237,14 9.5,14 L2.5,14 C2.22385763,14 2,13.7761424 2,13.5 L2,5.5 C2,5.22385763 2.22385763,5 2.5,5 Z" id="矩形" fill="#4285F4" fill-rule="nonzero"></path>
        <path d="M13.5,1 C14.2796961,1 14.9204487,1.59488808 14.9931334,2.35553999 L15,2.5 L15,10.5 C15,11.2796961 14.4051119,11.9204487 13.64446,11.9931334 L13.5,12 L12,12 L12,11 L13.5,11 C13.7454599,11 13.9496084,10.8231248 13.9919443,10.5898756 L14,10.5 L14,2.5 C14,2.25454011 13.8231248,2.05039163 13.5898756,2.00805567 L13.5,2 L6.5,2 C6.25454011,2 6.05039163,2.17687516 6.00805567,2.41012437 L6,2.5 L6,3 L5,3 L5,2.5 C5,1.72030388 5.59488808,1.07955132 6.35553999,1.00686658 L6.5,1 L13.5,1 Z" id="路径" fill="#4285F4" fill-rule="nonzero"></path>
        <polygon id="路径" fill="#4285F4" fill-rule="nonzero" points="8 7 8 8 3.5 8 3.5 7"></polygon>
        <polygon id="路径" fill="#4285F4" fill-rule="nonzero" points="6 10 6 11 3.5 11 3.5 10"></polygon>
    </g>
</svg>