<?xml version="1.0" encoding="UTF-8"?>
<svg width="24px" height="24px" viewBox="0 0 24 24" version="1.1" xmlns="http://www.w3.org/2000/svg" xmlns:xlink="http://www.w3.org/1999/xlink">
    <title>通用图标/线性/24/[编辑类-编辑器&amp;代码]iconCommon_line_24_codeExample</title>
    <g id="通用图标/线性/24/[编辑类-编辑器&amp;代码]iconCommon_line_24_codeExample" stroke="none" stroke-width="1" fill="none" fill-rule="evenodd">
        <rect id="矩形" x="0" y="0" width="24" height="24"></rect>
        <path d="M18.6240377,5.58397485 L21.8844375,10.4745745 C22.4617646,11.3405651 22.4978475,12.4523691 21.9926863,13.3490865 L21.8844375,13.5254255 L18.6240377,18.4160251 L17.3759623,17.5839749 L20.636362,12.6933752 C20.8882866,12.3154884 20.913479,11.8346281 20.7119394,11.4361466 L20.636362,11.3066248 L17.3759623,6.41602515 L18.6240377,5.58397485 Z" id="路径" fill="#4285F4" fill-rule="nonzero"></path>
        <path d="M2.62403772,5.58397485 L5.88443746,10.4745745 C6.46176457,11.3405651 6.49784752,12.4523691 5.99268629,13.3490865 L5.88443746,13.5254255 L2.62403772,18.4160251 L1.37596228,17.5839749 L4.63636202,12.6933752 C4.88828658,12.3154884 4.91347903,11.8346281 4.71193939,11.4361466 L4.63636202,11.3066248 L1.37596228,6.41602515 L2.62403772,5.58397485 Z" id="路径" fill="#4285F4" fill-rule="nonzero" transform="translate(3.861131, 12.000000) scale(-1, 1) translate(-3.861131, -12.000000) "></path>
        <polygon id="路径" fill="#4285F4" fill-rule="nonzero" opacity="0.6" points="15.3291796 3.6645898 16.6708204 4.3354102 8.67082039 20.3354102 7.32917961 19.6645898"></polygon>
    </g>
</svg>